<?xml version="1.0" encoding="UTF-8" standalone="no"?>
<svg
   version="1.1"
   viewBox="-5 -10 110 110"
   id="svg592"
   sodipodi:docname="noun-pass-8337226.svg"
   width="110"
   height="110"
   inkscape:export-filename="../../Projects/Godot/basketball-tactics/assets/icons/pass_icon_yellow_110_vec.svg"
   inkscape:export-xdpi="96"
   inkscape:export-ydpi="96"
   xmlns:inkscape="http://www.inkscape.org/namespaces/inkscape"
   xmlns:sodipodi="http://sodipodi.sourceforge.net/DTD/sodipodi-0.dtd"
   xmlns="http://www.w3.org/2000/svg"
   xmlns:svg="http://www.w3.org/2000/svg">
  <defs
     id="defs596" />
  <sodipodi:namedview
     id="namedview594"
     pagecolor="#ffffff"
     bordercolor="#000000"
     borderopacity="0.25"
     inkscape:showpageshadow="2"
     inkscape:pageopacity="0.0"
     inkscape:pagecheckerboard="0"
     inkscape:deskcolor="#d1d1d1"
     showgrid="false" />
  <g
     id="g765"
     transform="translate(-5e-4,-5.0002)"
     style="fill:#669900">
    <path
       d="m 61.438,31.75 c -0.79688,-1.0156 -2.2656,-1.2031 -3.2812,-0.40625 l -7.4062,5.75 c -1.0156,0.79688 -1.2031,2.2812 -0.40625,3.2969 0.46875,0.59375 1.1562,0.90625 1.8594,0.90625 0.5,0 1,-0.17188 1.4375,-0.5 l 7.3906,-5.7656 c 1.0312,-0.78125 1.2031,-2.2656 0.40625,-3.2812 z M 46.235,34.7656 38.8444,29 c -1.0312,-0.79688 -2.5,-0.60938 -3.2969,0.40625 -0.78125,1.0312 -0.60938,2.5 0.42188,3.2969 l 7.3906,5.75 c 0.42188,0.34375 0.9375,0.5 1.4375,0.5 0.70312,0 1.3906,-0.3125 1.8594,-0.90625 0.78125,-1.0156 0.60938,-2.5 -0.42188,-3.2812 z m 30,-14.531 c -0.79688,-1.0312 -2.2656,-1.2031 -3.2812,-0.40625 l -7.4062,5.75 c -1.0156,0.79688 -1.2031,2.2656 -0.40625,3.2969 0.46875,0.59375 1.1562,0.90625 1.8594,0.90625 0.5,0 1,-0.17188 1.4375,-0.5 l 7.3906,-5.7656 c 1.0156,-0.79688 1.2031,-2.2656 0.40625,-3.2812 z m -44.797,3 -7.3906,-5.75 c -1.0156,-0.79688 -2.5,-0.60938 -3.2812,0.40625 -0.79688,1.0156 -0.625,2.5 0.40625,3.2969 l 7.3906,5.75 c 0.4375,0.32812 0.9375,0.5 1.4375,0.5 0.70312,0 1.3906,-0.3125 1.8594,-0.90625 0.79688,-1.0156 0.60938,-2.5 -0.42188,-3.2969 z M 91.032,8.7186 C 90.23512,7.6874 88.7664,7.4998 87.7508,8.29672 l -2.3906,1.8594 -5.0156,3.9062 c -1.0156,0.79688 -1.2031,2.2656 -0.40625,3.2969 0.46875,0.59375 1.1562,0.89062 1.8438,0.89062 0.51562,0 1.0156,-0.15625 1.4375,-0.48438 l 6.625,-5.1562 0.78125,-0.60938 c 1.0156,-0.79688 1.2031,-2.2656 0.40625,-3.2812 z m -74.375,3 -7.4062,-5.75 C 8.2352,5.17172 6.7664,5.3436 5.9696,6.37485 c -0.79688,1.0156 -0.625,2.4844 0.40625,3.2812 l 7.3906,5.7656 c 0.4375,0.32812 0.9375,0.5 1.4375,0.5 0.70312,0 1.3906,-0.3125 1.8594,-0.90625 0.79688,-1.0312 0.60938,-2.5 -0.40625,-3.2969 z"
       id="path570"
       style="fill:#669900" />
    <path
       d="m 92.188,25.391 c -1.2969,0 -2.3438,-1.0469 -2.3438,-2.3438 v -12.891 h -12.688 c -1.2969,0 -2.3438,-1.0469 -2.3438,-2.3438 0,-1.2969 1.0469,-2.3438 2.3438,-2.3438 h 15.031 c 1.2969,0 2.3438,1.0469 2.3438,2.3438 v 15.234 c 0,1.2969 -1.0469,2.3438 -2.3438,2.3438 z"
       id="path572"
       style="fill:#669900" />
    <path
       d="M 92.188,94.531 H 7.813 c -1.2969,0 -2.3438,-1.0469 -2.3438,-2.3438 0,-1.2969 1.0469,-2.3438 2.3438,-2.3438 h 84.375 c 1.2969,0 2.3438,1.0469 2.3438,2.3438 0,1.2969 -1.0469,2.3438 -2.3438,2.3438 z"
       id="path574"
       style="fill:#669900" />
    <path
       d="m 36.266,59.219 c 2.4688,2.4688 4.0312,5.6094 4.5312,9.0312 h -14.625 c 0.45312,-4.5938 2.2031,-8.9062 5.0469,-12.5 0.125,0.09375 0.25,0.15625 0.375,0.21875 1.7188,0.78125 3.2969,1.875 4.6719,3.25 z"
       id="path576"
       style="fill:#669900" />
    <path
       d="m 65.375,52.25 c -1.7969,0.95312 -3.4531,2.1719 -4.9375,3.6562 -3.3594,3.3594 -5.4375,7.6875 -5.9688,12.344 h -8.9375 c -0.53125,-4.6719 -2.5938,-8.9844 -5.9531,-12.344 -1.4844,-1.4844 -3.1406,-2.7031 -4.9375,-3.6562 8.8594,-7.4375 21.875,-7.4219 30.734,0 z"
       id="path578"
       style="fill:#669900" />
    <path
       d="M 73.828,68.25 H 59.203 c 0.5,-3.4062 2.0781,-6.5469 4.5625,-9.0312 1.375,-1.375 2.9375,-2.4688 4.6562,-3.25 0.125,-0.0625 0.25,-0.125 0.35938,-0.20312 2.8594,3.5938 4.5938,7.9062 5.0469,12.484 z"
       id="path580"
       style="fill:#669900" />
    <path
       d="m 36.234,81.984 c -1.375,1.3906 -2.9531,2.4688 -4.6562,3.2031 -0.14062,0.0625 -0.26562,0.125 -0.375,0.21875 -2.8438,-3.5938 -4.5781,-7.8906 -5.0312,-12.469 h 14.625 c -0.48438,3.4062 -2.0625,6.5625 -4.5625,9.0469 z"
       id="path582"
       style="fill:#669900" />
    <path
       d="m 65.375,88.938 c -4.2969,3.625 -9.6875,5.5938 -15.375,5.5938 -5.6875,0 -11.094,-1.9688 -15.391,-5.6094 1.7969,-0.90625 3.4531,-2.1406 4.9531,-3.625 3.375,-3.375 5.4375,-7.7031 5.9688,-12.359 h 8.9375 c 0.53125,4.6719 2.5938,9 5.9531,12.359 1.5,1.4844 3.1562,2.7188 4.9531,3.6406 z"
       id="path584"
       style="fill:#669900" />
    <path
       d="m 73.828,72.938 c -0.4375,4.5938 -2.1719,8.8906 -5.0312,12.484 -0.125,-0.09375 -0.26562,-0.17188 -0.40625,-0.23438 -1.7031,-0.73438 -3.2656,-1.8125 -4.6562,-3.2031 -2.4688,-2.4844 -4.0469,-5.6406 -4.5312,-9.0469 z"
       id="path586"
       style="fill:#669900" />
  </g>
</svg>
